<?xml version="1.0" standalone="no"?>
<!DOCTYPE svg PUBLIC "-//W3C//DTD SVG 1.1//EN" "http://www.w3.org/Graphics/SVG/1.1/DTD/svg11.dtd" >
<!--
2013-9-30: Created.
-->
<svg>
<metadata>
Created by iconfont
</metadata>
<defs>

<font id="iconfont" horiz-adv-x="1024" >
  <font-face
    font-family="iconfont"
    font-weight="500"
    font-stretch="normal"
    units-per-em="1024"
    ascent="896"
    descent="-128"
  />
    <missing-glyph />
    
    <glyph glyph-name="youjian" unicode="&#58880;" d="M949.8179 148.3528V511.79840068433606L663.6509 330.0756 949.8179 148.3528zM84.0485 44.4413c12.6769-28.2888 41.4416-48.0234 74.9044-48.0234h709.0520429007152c33.3158 0 62.0246 19.5757 74.7834 47.6667 4.5531 10.0152 7.0305 21.0867 7.0305 32.7678L607.2908 294.3278l-93.8133-59.5856-93.8133 59.5856L77.1389 76.8523C77.1389 65.3441 79.6184 54.3436 84.0485 44.4413zM77.1389 511.7984v-363.4455838941198l286.167 181.7228L77.1389 511.7984zM158.9519 663.7324c-33.4617 0-62.2274-19.7346-74.9044-48.0234-4.4632-9.9273-6.9096-20.8559-6.9096-32.411l436.3395-277.0562 436.3395 277.0562c0 11.6571-2.4924 22.7686-7.0305 32.7678-12.7589 28.091-41.4676 47.6667-74.7834 47.6667H158.9519065874104z"  horiz-adv-x="1000" />

    
    <glyph glyph-name="feiji" unicode="&#58920;" d="M66.109674 97.169455c-0.805342 0.805342-1.531889 1.695618-2.157129 2.654456-3.26844 4.846378-3.87833 11.000542-1.651616 16.390295l77.524654 188.018188-77.392648 177.789219c-2.340301 5.409197-1.815345 11.640108 1.402953 16.570397 3.233648 4.950755 8.741082 7.91732 14.642488 7.91732L155.393139 506.511377c5.079692-0.002047 9.943466-2.393513 13.276375-6.085602l88.754417-103.298668 181.136453-0.00307-99.061157 315.209008c-1.846044 5.344728-0.975211 11.267625 2.308579 15.865339 3.28072 4.570085 8.590656 7.306406 14.233166 7.306406l102.846366 0c5.79089-0.01535 11.18576-2.867304 14.46648-7.633864l219.165582-335.346651 177.567161-0.00307c47.842635 0.051165 89.547479-41.685401 89.562828-89.562828l-0.013303-6.874571c0.016373-23.896246-9.3039-46.370097-26.223245-63.289442-16.919345-16.919345-39.396265-26.242687-63.342654-26.239618L694.351118 206.554748 480.281601-129.207365c-3.233648-4.881171-8.69094-7.79657-14.564717-7.800663l-104.566544 0.00307c-5.590322-0.016373-10.81737 2.669806-14.133905 7.1744-3.28072 4.501524-4.204765 10.339486-2.52552 15.648398l91.115184 312.176952L259.217786 197.994792l-83.656305-99.722212c-3.315512-3.976568-8.231475-6.250354-13.408381-6.250354L78.408791 92.022225C73.794703 92.058041 69.359694 93.920458 66.109674 97.169455L66.109674 97.169455zM66.109674 97.169455"  horiz-adv-x="1024" />

    
    <glyph glyph-name="080juhui" unicode="&#58967;" d="M932.738995-3.547547c-3.713578 6.91141-11.296277 10.110265-19.291368 8.046257-10.677177-2.707668-21.252023-5.544273-31.875988-8.30413-3.663436-0.954745-7.324826-1.882883-11.090593-2.836605-22.437012 79.408561-44.771693 158.454872-67.156516 237.501182 2.216481 1.753947 4.177136 3.197832 6.085602 4.822842 8.66638 7.427156 15.371082 16.505929 21.199835 26.330692 8.716522 14.751982 14.905478 30.638811 19.549242 47.170323 9.335622 33.064047 12.688997 66.951855 13.254885 101.174284 0.310062 21.147646-0.463558 42.270732-1.958608 63.36619-1.134847 15.9646-2.322905 31.928177-4.126994 47.816029-1.960655 17.252943-4.487198 34.43016-7.169283 51.579749-3.302209 21.251-7.892761 42.218544-13.875009 62.875003-16.506952 56.893778-37.396725 112.160499-60.813041 166.44894-0.929162 2.166339-2.065032 4.25593-3.353374 6.242168-10.057053 15.680121-29.503964 24.784476-50.857295 18.825764-23.624047-6.601348-47.300282-12.894681-70.973448-19.34151-34.146705-9.258874-68.242244-18.568914-102.386902-27.750017-21.147646-5.699816-33.269731-24.449855-33.733289-42.141796-0.104377-3.842515 0.360204-7.710612 0.515746-11.579733 0.773619-15.242146 2.629897-30.40652 5.054109-45.440935 2.835581-17.615193 6.033413-35.20378 9.335622-52.741201 3.919263-20.47738 8.251941-40.876989 14.44192-60.813041 13.307074-42.553165 29.142737-84.127026 46.680159-125.056204 13.049201-30.508851 27.079752-60.555168 43.998073-89.104387 14.804171-25.015743 30.535457-49.361221 49.001017-71.799256 10.986215-13.384845 22.900569-25.89374 36.725436-36.286438 11.707646-8.794293 24.345478-15.680121 38.736233-18.697851 3.765767-0.799202 7.53051-1.212618 11.709693-1.88186 22.590508-79.820953 45.183062-159.822009 67.827805-239.977583-2.424212-0.670266-4.590552-1.26276-6.705726-1.805112-16.093537-4.230348-32.18605-8.381901-48.227398-12.71458-7.377014-1.985214-12.122085-8.27957-12.277628-15.551184-0.153496-7.814989 4.074805-14.029528 11.296277-16.711614 0.671289-0.258896 1.341554-0.541329 2.062985-0.825808l6.655584 0c6.240121 1.727341 12.481266 3.559059 18.775622 5.209652 36.775578 9.645684 73.55218 19.23918 110.38097 28.807093 5.208629 1.341554 9.697873 3.66139 12.379958 8.588609 0.823761 1.470491 1.341554 3.120061 2.010797 4.693906l0 7.504928C933.923984-6.4609 933.460426-4.940266 932.738995-3.547547L932.738995-3.547547zM562.547745 630.836805c-3.765767 21.405519-7.788383 42.759873-11.038404 64.24214-1.958608 13.075807-2.835581 26.331715-3.971451 39.510876-0.669242 7.117095 2.837628 11.528568 10.0591 13.488199 20.476357 5.545296 40.953737 11.063987 61.430094 16.634866 36.365232 9.851369 72.780607 19.729344 109.195981 29.607318 1.856277 0.490164 3.816932 1.031493 5.726421 1.109264 5.311982 0.257873 9.231245-2.321882 11.346419-7.324826 7.221472-17.510816 14.649652-34.971489 21.61325-52.585659 12.68695-32.134885 24.137747-64.733327 34.144658-97.847515 0.36225-1.290389 0.671289-2.605338 1.187035-4.359284-79.071893-5.260817-157.834748-10.496052-236.857523-15.783475C564.405045 622.093676 563.321364 626.426355 562.547745 630.836805L562.547745 630.836805zM468.517161 781.295562C411.624407 796.898935 354.629321 812.270017 297.684378 827.717847c-4.022617 1.083681-8.098445 1.985214-12.121062 2.991124l-6.653537 0c-0.928139-0.257873-1.857301-0.618077-2.785439-0.773619-16.918321-2.88777-28.832675-12.224416-35.69292-28.16241-0.515746-1.133823-0.928139-2.320858-1.443885-3.455705-12.431124-28.704762-23.933085-57.821917-34.455743-87.273692-10.006911-27.724435-19.394722-55.628972-26.925233-84.127026-11.089569-41.882899-16.814967-84.720543-20.6319-127.815037-1.547239-17.176195-2.269693-34.455743-3.094478-51.683103-1.39272-27.389814-0.928139-54.753021 2.114151-82.038458 2.217505-19.806091 5.622044-39.330774 11.296277-58.414411 5.622044-18.877953 13.152555-36.905538 24.552186-53.075823 6.447852-9.232269 13.823843-17.588587 23.624047-23.340591 0.206708-0.103354 0.257873-0.412392 0.412392-0.825808-21.766746-77.626985-43.636846-155.384953-65.558112-233.296417-1.186012 0.257873-1.908466 0.38681-2.63092 0.567935-12.069897 3.146667-24.13877 6.189979-36.106336 9.44-10.109242 2.758834-18.568914-3.585665-20.735253-11.038404-0.206708-0.928139-0.928139-1.701758-1.39272-2.553149l0-5.26184c0.412392-0.592494 1.031493-1.133823 1.238201-1.805112 2.114151-7.092535 7.066953-10.70276 13.926174-12.482289 37.911448-9.826809 75.822896-19.806091 113.734344-29.736255 4.848425-1.263783 9.748015-2.656503 14.648628-3.816932 10.93505-2.553149 20.838607 5.106298 20.940938 16.144702 0.103354 7.968485-4.848425 14.494109-12.791327 16.634866-13.513782 3.610224-26.976398 7.040347-40.439014 10.573823-5.983271 1.572822-11.863189 3.145643-18.156522 4.822842 22.385846 79.58764 44.668339 158.918429 66.950831 238.068094 3.094478 0.567935 5.776563 1.00591 8.407484 1.572822 14.287401 2.992147 26.76969 9.774621 38.427194 18.441001 14.029528 10.444886 26.048259 22.978341 37.034475 36.518728 25.841551 31.79924 47.40159 66.436108 66.125023 102.928231 19.498076 38.194904 35.951817 77.80811 51.064003 117.990275 13.876032 36.878932 26.821879 74.068949 34.455743 112.960725 7.42818 37.653575 14.751982 75.280544 17.124006 113.65555 0.310062 4.848425 0.6191 9.852392-0.308015 14.57188C498.227834 763.680369 487.087099 776.241452 468.517161 781.295562L468.517161 781.295562zM469.187427 736.318184c-0.87595-10.083659-1.496074-20.193925-2.629897-30.252001-2.785439-23.442922-6.963599-46.679136-11.55415-69.838601-0.257873-1.341554-0.618077-2.682086-0.980327-4.384867-78.659501 5.235235-156.957775 10.444886-235.56611 15.680121 0.825808 2.759857 1.444908 5.132904 2.217505 7.504928 14.184047 43.972491 30.484292 87.092567 48.743144 129.466654 0.567935 1.263783 1.083681 2.527566 1.599428 3.791349 2.682086 6.653537 7.995091 9.413394 14.855336 7.659447 5.415336-1.367137 10.728342-2.888793 16.093537-4.332678 52.353368-14.210653 104.655572-28.420283 156.957775-42.605354 2.992147-0.799202 5.622044-1.908466 7.633864-4.332678C468.517161 742.249267 469.4453 739.463828 469.187427 736.318184L469.187427 736.318184zM469.187427 736.318184"  horiz-adv-x="1024" />

    
    <glyph glyph-name="daibanshixiang" unicode="&#58891;" d="M49.066667-106.666667c0 12.8 10.666667 21.333333 21.333333 21.333333l768 0c12.8 0 21.333333-8.533333 21.333333-21.333333 0-12.8-10.666667-21.333333-21.333333-21.333333l-768 0C57.6-128 49.066667-119.466667 49.066667-106.666667zM955.733333 601.6c32 32 29.866667 72.533333-4.266667 104.533333L789.333333 870.4c-32 32-74.666667 34.133333-104.533333 4.266667L119.466667 307.2 46.933333 19.2C40.533333-21.333333 61.866667-42.666667 102.4-34.133333l288 70.4L955.733333 601.6zM87.466667 4.266667l59.733333 270.933333 211.2-211.2L87.466667 4.266667zM388.266667 96c-72.533333 72.533333-189.866667 189.866667-211.2 211.2L569.6 697.6l211.2-211.2L388.266667 96zM810.666667 516.266667l-211.2 211.2 108.8 108.8c25.6 27.733333 27.733333 27.733333 61.866667-8.533333l140.8-140.8c34.133333-34.133333 36.266667-34.133333 8.533333-61.866667L810.666667 516.266667z"  horiz-adv-x="1024" />

    
    <glyph glyph-name="qingjiashenqing" unicode="&#58887;" d="M514.398118 523.427516l0 67.182099-59.983139 0 0-93.575212 33.591049 0C507.199159 497.034403 515.972986 505.807207 514.398118 523.427516zM932.556846 50.462554l0 667.072845c0 48.060599-38.960337 87.021959-87.020936 87.021959l-667.072845 0c-48.061622 0-87.021959-38.960337-87.021959-87.021959l0-667.072845c0-48.059576 38.960337-87.020936 87.021959-87.020936l667.072845 0C893.59651-36.558381 932.556846 2.404002 932.556846 50.462554zM790.323425 158.72528l0-50.385551c-51.211359 20.806885-92.787266 43.187615-124.766608 67.181075-33.591049-23.99346-75.204819-46.37419-124.766608-67.181075l0 47.986921c36.777625 17.58347 65.569368 36.777625 86.376253 57.58451-23.992437 33.590026-43.187615 75.954903-57.583486 127.165238l62.382792 0c6.374174-22.418592 17.58347-48.810682 33.591049-79.178317 15.97074 28.792767 28.792767 61.558008 38.390355 98.373495L569.582975 360.271576l0 50.386574 201.545272 0 0-50.386574c-14.395872-59.196217-36.815487-107.971084-67.181075-146.359392C729.514477 189.9177 758.307244 171.510468 790.323425 158.72528zM591.177805 497.034403l83.9766 0c19.195178 0 27.966958 8.772804 26.393113 26.393113l0 67.182099L591.177805 590.609615l0 45.587268 172.752506 0 0-117.568672c3.186576-47.986921-18.407232-70.406536-64.782446-67.182099L591.177805 451.446112 591.177805 497.034403zM389.632533 636.196883l179.951465 0 0-117.568672c1.574868-46.412053-20.806885-68.793806-67.182099-67.182099l-47.985898 0 0-62.382792 100.772124 0 0-47.987944-100.772124 0 0-64.782446 103.171778 0 0-47.987944L454.414979 228.304985l0-119.966279-64.782446 0L389.632533 636.196883zM228.876246 487.436814c44.762483 36.777625 71.980381 94.362134 81.57797 172.753529l69.581752 0c-8.022721-46.412053-19.195178-83.977623-33.591049-112.77039l0-439.081247-64.782446 0L281.662473 468.242659c-14.395872-9.597589-32.016181-19.195178-52.785204-28.792767L228.877269 487.436814z"  horiz-adv-x="1024" />

    
    <glyph glyph-name="zhihu" unicode="&#59034;" d="M544.949 334.578s0 71.387-34.779 75.050c-34.779 3.663-142.775 0-142.775 0v219.654h161.078s-1.83 73.219-32.949 73.219h-261.755l43.93 117.148s-65.897-3.663-89.692-45.761-98.844-252.604-98.844-252.604 25.627-10.983 67.726 20.134c42.101 31.116 56.743 86.033 56.743 86.033l76.879 3.663 1.83-223.316s-133.621 1.83-161.078 0c-27.457-1.83-42.101-75.050-42.101-75.050h203.182s-18.307-124.47-69.557-214.164c-53.085-89.692-151.929-161.078-151.929-161.078s71.387-29.287 140.947 10.983c69.557 42.101 120.811 223.316 120.811 223.316l162.912-203.182s14.643 97.013-1.83 124.47c-18.307 27.457-113.49 137.283-113.49 137.283l-42.101-36.607 29.287 120.811h177.552zM587.050 707.99l-1.83-660.793h65.897l23.795-82.37 115.321 82.37h162.912v660.793h-366.091zM879.92 120.416h-76.879l-97.013-75.050-21.965 75.050h-20.134v512.527h215.991v-512.527z"  horiz-adv-x="1024" />

    
    <glyph glyph-name="meetingnotice-icon" unicode="&#58936;" d="M747.862-127.915c-151.087 0-273.6 122.515-273.6 273.6 0 151.122 122.513 273.6 273.6 273.6 151.086 0 273.6-122.478 273.6-273.6 0-151.085-122.514-273.6-273.6-273.6zM747.862 382.805c-130.96 0-237.121-106.161-237.121-237.12 0-130.957 106.162-237.12 237.121-237.12 130.958 0 237.122 106.163 237.122 237.12 0 130.959-106.164 237.12-237.122 237.12zM656.662 137.455v117.67c0 30.247 24.474 54.721 54.722 54.721h18.239v36.479h36.479v-36.479h18.24c30.245 0 54.72-24.474 54.72-54.721v-118.845c29.462-19.237 54.256-47.382 72.961-81.796h-332.773c19.095 35.199 45.884 63.734 77.413 82.972zM766.102 18.005h-36.48v36.48h36.48v-36.48zM437.782 145.685c0-118.49 66.512-221.374 164.232-273.6h-529.034c-40.293 0-72.96 32.704-72.96 72.96v875.522c0 40.327 32.668 72.96 72.96 72.96h693.12c40.291 0 72.961-32.633 72.961-72.96v-378.481c-28.82 8.906-59.459 13.68-91.2 13.68-171.25 0-310.080-138.795-310.080-310.080zM72.981 72.725c0-10.045 8.157-18.24 18.24-18.24h291.84c10.082 0 18.241 8.195 18.241 18.24v36.48c0 10.118-8.159 18.239-18.24 18.239h-291.84c-10.084 0-18.241-8.122-18.241-18.24v-36.478zM72.981 218.645c0-10.045 8.157-18.238 18.24-18.238h291.84c10.082 0 18.241 8.193 18.241 18.238v36.48c0 10.12-8.159 18.24-18.24 18.24h-291.84c-10.084 0-18.241-8.122-18.241-18.24v-36.48zM72.981 364.566c0-10.045 8.157-18.24 18.24-18.24h291.84c10.082 0 18.241 8.195 18.241 18.24v36.48c0 10.119-8.159 18.24-18.24 18.24h-291.84c-10.084 0-18.241-8.121-18.241-18.24v-36.48zM255.381 765.846c0 10.118-8.158 18.241-18.24 18.241h-145.92c-10.083 0-18.24-8.123-18.24-18.24v-72.961c0-10.046 8.157-18.24 18.24-18.24h145.92c10.082 0 18.24 8.194 18.24 18.24v72.96zM510.741 765.846c0 10.118-8.159 18.241-18.24 18.241h-145.92c-10.082 0-18.24-8.123-18.24-18.24v-72.961c0-10.046 8.158-18.24 18.24-18.24h145.92c10.082 0 18.24 8.194 18.24 18.24v72.96zM656.662 546.966c0 10.118-8.16 18.241-18.24 18.241h-547.2c-10.084 0-18.241-8.123-18.241-18.24v-36.48c0-10.046 8.157-18.24 18.24-18.24h547.202c10.080 0 18.24 8.194 18.24 18.24v36.48z"  horiz-adv-x="1024" />

    
    <glyph glyph-name="huiyishir" unicode="&#59192;" d="M176.128 602.112c57.344 0 103.936 46.592 103.936 103.936s-46.592 103.936-103.936 103.936-103.936-46.592-103.936-103.936S119.808 602.112 176.128 602.112zM523.264 515.584c0 28.672-23.04 51.712-51.712 51.712L90.112 567.296c-24.064 0-46.592-9.728-62.976-26.624-16.384-17.92-25.088-40.448-24.064-64l10.24-189.952c2.048-34.304 28.16-61.44 61.44-64.512l13.824-228.864c2.048-27.648 24.576-48.64 51.712-48.64l69.12 0c27.648 0 50.176 21.504 51.712 48.64l26.112 439.296 183.296 31.744C500.736 464.384 523.264 487.424 523.264 515.584zM943.616 786.944l-501.76 0c-41.472 0-75.264-33.792-75.264-75.264l0-114.176 104.448 0c43.52 0 78.848-35.328 78.848-78.848 0-41.984-33.792-76.8-75.264-78.848l-108.032-18.944L366.592 296.96c0-41.472 33.792-75.264 75.264-75.264l501.76 0c41.472 0 75.264 33.792 75.264 75.264L1018.88 711.68C1018.88 753.152 985.088 786.944 943.616 786.944zM891.904 645.12l-103.936-173.568c-3.072-4.096-7.168-7.168-12.8-8.192-5.12-0.512-10.24 1.024-13.824 5.12l-52.736 52.736L650.24 403.968c-2.56-5.12-7.168-8.704-12.8-9.216-1.024 0-2.56 0-3.072 0-4.096 0-9.216 2.048-12.288 5.12l-34.816 34.816c-6.656 6.656-6.656 17.92 0 24.576 6.656 6.656 17.92 6.656 24.576 0l17.92-17.92L688.128 558.08c2.56 5.12 8.192 8.704 12.8 9.216 5.12 0.512 10.752-1.024 14.848-5.12l53.76-53.76 92.672 154.112c5.12 8.704 15.872 10.752 24.064 6.144C894.464 664.064 897.024 652.8 891.904 645.12z"  horiz-adv-x="1024" />

    
    <glyph glyph-name="yongcheshenqing" unicode="&#58906;" d="M1066.288129 561.799452H963.734428c-4.876054 0-9.362228-1.454118-13.383822-3.623527l-46.232974 139.250484c-14.794961 79.226412-70.542636 117.424386-139.063219 117.424386H330.74996c-78.653361 0-126.390595-51.313689-139.06322-117.349685l-46.354747-139.722228c-4.218068 2.445702-9.003048 4.02057-14.201444 4.02057H28.554336c-15.759939 0-28.554336-12.770861-28.554336-28.576849v-24.778336c0-15.758915 12.794397-28.554336 28.554336-28.554336l38.833447-6.634094c-12.258185-23.966854-19.258623-51.385321-19.258623-83.285869L33.753755 225.60141c0-4.762467 0.349971-9.616008 0.940418-14.499225-0.544399-2.980891-0.940418-6.091742-0.940418-9.271154v-197.741644c0-28.133757 22.836101-50.940183 50.969858-50.940182h77.791738c28.157293 0 50.963719 22.805402 50.963718 50.940182V67.651029h668.814512v-63.560618c0-28.133757 22.811542-50.940183 50.969858-50.940183h77.790714c28.133757 0 50.964742 22.805402 50.964742 50.940183V201.832054c0 3.185552-0.390903 6.290263-0.941442 9.271154 0.565888 4.883217 0.941442 9.736758 0.941442 14.499226l-14.377452 164.361395c0 31.983435-7.024997 59.424414-19.329231 83.468016l37.9708 6.459109c15.781428 0 28.554336 12.794397 28.554336 28.554336v24.778336c0.005117 15.804964-12.767791 28.575826-28.549219 28.575826z m-840.307328 29.264511l33.95023 90.364077 0.472767 2.11722c3.37691 18.275225 10.92277 21.529339 22.066575 35.639709h531.501146c11.243065-14.499226 18.251689-18.180058 21.353331-35.440164l34.492582-92.681866 12.626575-50.346665c-2.864234-36.839023-47.124274-65.933665-83.95818-65.933665H297.312406c-36.861536 0-81.122599 29.094642-83.981716 65.935712l12.650111 50.345642z m23.792892-429.717996c-42.634006 0-77.172637 34.545794-77.172637 77.177754s34.539654 77.172637 77.172637 77.172637c42.63196 0 77.17673-34.540677 77.176731-77.172637 0-42.63196-34.543747-77.177753-77.176731-77.177754z m431.032944 56.933687h-0.007163c0-12.69616-10.280134-22.953781-22.958898-22.953781H441.33559c-12.670577 0-22.958898 10.257621-22.958897 22.953781v64.504107c0 12.672624 10.281157 22.931269 22.958897 22.931268h216.506009c12.678764 0 22.965038-10.258645 22.965038-22.931268v-64.504107z m165.19539-56.933687c-42.632983 0-77.200266 34.545794-77.200267 77.177754s34.567283 77.172637 77.200267 77.172637c42.63196 0 77.171614-34.540677 77.171613-77.172637 0.00614-42.63196-34.539654-77.177753-77.171613-77.177754z"  horiz-adv-x="1094" />

    
    <glyph glyph-name="qiandao-kaoqindaqia" unicode="&#58923;" d="M512 832c-192 0-339.2-153.6-345.6-345.6 0-140.8 192-403.2 288-524.8 25.6-32 76.8-32 102.4-6.4l6.4 6.4c96 128 288 384 288 524.8C851.2 678.4 704 832 512 832z m0-569.6c-121.6 0-224 102.4-224 224s102.4 224 224 224 224-102.4 224-224-102.4-224-224-224zM544 608h-64v-192h192v64H544V608z"  horiz-adv-x="1024" />

    
    <glyph glyph-name="zhihuiwode" unicode="&#58942;" d="M888.376 678.904v-209.152c-22.464-0.728-41.424 0.296-61.848-1.464 0 133.112-1.168-14.896-1.168 118.216V676.704c0 16.256 1.456 34.264-1.456 48.32-3.648 17.136-8.752 32.216-16.632 44.96-15.312 24.752-38.8 43.792-70.152 52.424-14.152 3.952-33.12 3.072-51.2 3.072H216.248c-16.336 0-35.152 1.624-49.296-1.464a123.28 123.28 0 0 1-51.2-24.152c-20.712-16.264-35.152-41.296-41.856-71.608-3.216-14.208-1.904-32.952-1.904-49.792v-581.64c0-17.568-1.744-37.632 1.464-52.864 5.104-24.304 14.584-42.76 27.568-59.16 16.336-20.496 40.84-33.824 72.056-39.536 10.496-0.296 21.144-0.432 31.648-0.736h237.28c1.608-13.904 3.064-27.672 4.384-41.728 1.312-7.176 2.48-14.352 3.784-21.528H276.928c-41.864 0-94.952-4.248-129.672 4.544-39.672 10.096-72.928 30.896-94.952 58.864-18.376 23.28-32.232 49.496-39.96 83.76-4.232 19.472-3.36 43.64-3.36 67.216V194.792 582.544v95.04c0 20.792-1.024 42.464 2.624 60.032C21.384 783.6 42.096 821.672 73.016 845.984c23.192 18.312 48.136 31.92 82.56 39.536 18.376 4.104 42.152 2.648 64.032 2.648H677.312c30.344 0 59.072 0.28 81.832-6.744 43.896-13.616 77.88-40.72 100.2-76.144 12.688-20.504 21.008-43.344 26.696-71.312 3.352-16.408 2.336-36.032 2.336-55.064zM292.68 193.176c-0.928 0-1.808 0.2-2.72 0.28-2.92 0.096-5.728 0.328-8.072 1.04-4.16 1.312-8.176 4.192-11.632 7.952-0.752 0.736-1.368 1.584-2.048 2.392-0.336 0.448-0.728 0.816-1.056 1.28a31.992 31.992 0 0 0-6.56 19.272c0 0.232 0.064 0.448 0.072 0.68 0 0.08 0.024 0.168 0.024 0.256a31.6 31.6 0 0 0 2.36 11.336l0.128 0.336c0.424 1.072 0.656 2.144 1.208 3.208 3.888 7.44 7.496 9.92 12.584 12.088a31.76 31.76 0 0 0 8.464 3.408c0.712 0.296 1.376 0.568 2.144 0.912l5.024-0.008 0.08 0.008h143.816c1 0 1.936-0.208 2.904-0.296h9.496c-2.264-0.104-4.36-0.216-6.336-0.328a32.28 32.28 0 0 0 26.032-31.592c0-17.728-14.448-32.224-32.096-32.224H292.68z m156.512 64c0.288 0 0.584 0.144 0.432 0h-0.432zM313.248 383.104c-11.376 0-24.944-1.168-33.112 2.2-5.568 2.248-10.688 6.944-14.272 12.84a30.584 30.584 0 0 0-5.272 17.176c0 16.984 13.856 30.752 30.632 30.752h258.904c16.336 0 29.8-13.08 30.504-29.448l0.088-0.904c0-0.136 0.04-0.264 0.04-0.4 0-0.24-0.064-0.464-0.072-0.704 0.008-0.888 0.064-1.768-0.072-2.664-0.08-0.496-0.24-0.856-0.336-1.336a29.504 29.504 0 0 0-1.192-4.84c-5.776-19.808-21.928-22.672-49.672-22.672H313.248z m263.384 190.224H291.224c-16.776 0-30.488 13.76-30.488 30.6 0 3.224 0.64 6.272 1.568 9.192l0.312 0.992a30.4 30.4 0 0 0 2.664 5.648c0.112 0.184 0.152 0.384 0.272 0.568 0.032 0.056 0.08 0.08 0.112 0.136a30.392 30.392 0 0 0 22.32 13.736l0.472 0.184h1.328c0.488 0.024 0.952 0.152 1.44 0.152h316.224a30.656 30.656 0 0 0 30.632-30.608c0-16.84-13.712-30.6-30.488-30.6h-15.568c-4.928-0.168-10.08-0.136-15.392 0zM994.056 32.488c-8.336-16.936-16.92-28.784-23.152-35.424a19.952 19.952 0 0 0-28.088-0.944 19.648 19.648 0 0 0-0.952 27.912c3.696 3.952 10.008 12.672 16.528 25.864 11.12 22.464 17.832 48.912 17.832 79.08 0 30.16-6.712 56.576-17.832 79.08-6.52 13.184-12.832 21.912-16.528 25.856a19.68 19.68 0 0 0 0.952 27.912 19.888 19.888 0 0 0 28.048-0.944c6.232-6.592 14.816-18.48 23.192-35.336 13.712-27.72 21.888-60.008 21.888-96.528s-8.176-68.816-21.888-96.528z m-156.976-148.504l-158.776 115.464h-79.2c-44.456 0-65.504 35.296-65.504 78.88V179.616c0 43.864 21.488 78.888 65.504 78.888h79.2l158.776 115.544c22.008 9.432 39.84-0.632 39.84-22.624v-444.824c0-21.944-17.4-32.296-39.84-22.616z"  horiz-adv-x="1024" />

    
    <glyph glyph-name="shangchuan" unicode="&#58911;" d="M869.305463 198.901663c-11.431829 0-20.674584-9.242755-20.674584-20.674585V99.420428c0-43.903088-35.754869-79.657957-79.657957-79.657958H245.297862c-43.903088 0-79.657957 35.754869-79.657957 79.657958v78.80665c0 11.431829-9.242755 20.674584-20.674584 20.674585s-20.674584-9.242755-20.674585-20.674585V99.420428c0-66.766746 54.24038-121.007126 121.007126-121.007126h523.67506c66.766746 0 121.007126 54.24038 121.007126 121.007126v78.80665c0 11.431829-9.242755 20.674584-20.674585 20.674585zM227.663658 457.577197L486.460808 716.252732v-499.83848c0-11.431829 9.242755-20.674584 20.674584-20.674585s20.674584 9.242755 20.674584 20.674585v499.83848l258.675535-258.675535c4.013302-4.013302 9.364371-6.08076 14.593824-6.08076s10.580523 2.067458 14.593824 6.08076c8.026603 8.026603 8.026603 21.161045 0 29.187649L524.039905 778.3981c-3.648456 5.594299-9.729216 9.485986-16.904513 9.485986s-13.256057-3.891686-16.904513-9.485986L198.47601 486.764846c-8.026603-8.026603-8.026603-21.161045 0-29.187649 8.026603-8.148219 21.161045-8.148219 29.187648 0z"  horiz-adv-x="1024" />

    
    <glyph glyph-name="jiantouyou" unicode="&#59245;" d="M808.058711 417.893554l-20.433455 20.467306a43.486149 43.486149 0 0 1-13.134281 9.008661L377.026645 845.485488C360.392992 862.14876 333.286612 862.013355 316.483702 845.185058l-20.281123-20.310744c-16.798678-16.824066-16.934083-43.976992-0.296199-60.644496l377.872926-378.490711-372.139372-372.757157c-16.764826-16.794446-16.629421-44.146248 0.296198-61.10995l20.437686-20.467306c16.929851-16.963702 44.24357-17.090645 61.008397-0.30043l424.976925 425.675108c16.764826 16.794446 16.629421 44.154711-0.300429 61.114182z"  horiz-adv-x="1024" />

    
    <glyph glyph-name="jiantouzuo" unicode="&#59246;" d="M296.304132 358.598876l20.433455-20.467306c3.905587-3.91405 8.378182-6.888727 13.134281-9.008661l397.46433-398.115967c16.637884-16.663273 43.744264-16.527868 60.542942 0.296198l20.281124 20.310744c16.798678 16.824066 16.934083 43.976992 0.296199 60.644496l-377.872926 378.490711 372.139372 372.757157c16.764826 16.794446 16.629421 44.146248-0.296198 61.10995l-20.437686 20.467306c-16.929851 16.963702-44.24357 17.090645-61.008397 0.30043L296.003702 419.713058c-16.764826-16.794446-16.629421-44.154711 0.30043-61.114182z"  horiz-adv-x="1024" />

    
    <glyph glyph-name="daibanshixiang1" unicode="&#58960;" d="M753.152-105.984c-49.152 0-94.72 13.312-132.608 36.352h-507.392c-53.248 0-94.72 41.984-94.72 95.232V769.024c0 53.248 41.472 95.232 94.72 95.232h662.528C828.928 864.256 870.4 822.272 870.4 769.024v-390.144c81.408-43.52 138.24-129.536 138.24-228.352 0-140.8-115.712-256.512-255.488-256.512z m-577.536 536.576h562.176c11.264 0 18.944 7.68 18.944 18.944s-7.68 18.944-18.944 18.944h-562.176c-11.264 0-18.944-7.68-18.944-18.944s7.68-18.944 18.944-18.944zM548.864 664.576h-372.736c-11.264 0-18.944-7.68-18.944-18.944s7.68-18.944 18.944-18.944h372.736V664.576z m37.376 135.168v-163.84c0-32.256 24.576-57.344 56.832-57.344h162.816l-219.648 221.184z m261.632-451.072c-2.048 0-3.584 0-5.632 2.048-26.624 11.264-56.832 18.944-89.088 18.944-121.344 0-217.6-98.816-217.6-218.624 0-119.808 98.304-218.624 217.6-218.624s217.6 98.816 217.6 218.624c0 87.04-49.152 161.28-122.88 197.632z m24.576-220.672h-119.296c-11.264 0-18.944 7.68-18.944 18.944v152.064c0 11.264 7.68 18.944 18.944 18.944s18.944-7.68 18.944-18.944v-133.12H870.4c11.264 0 20.992-7.68 20.992-18.944s-7.68-18.944-18.944-18.944z"  horiz-adv-x="1024" />

    
    <glyph glyph-name="yinzhang" unicode="&#58889;" d="M645.225 250.126c-44.082-44.082-104.5-61.865-161.846-53.293l-21.664-12.512c67.658-16.799 142.266 1.273 195.152 54.159 25.546 25.546 42.981 56.189 52.365 88.627l-21.606-12.454c-9.325-23.574-23.458-45.586-42.4-64.528zM564.94 154.664l-16.857-1.795 8.457-14.25-4.344-16.625 16.625 4.344 14.25-8.457 1.795 16.857 13.149 11.295-15.465 6.083-6.083 15.465-11.527-12.917zM752.388 291.369l16.278 2.954-9.732 14.018 2.49 17.204-15.698-5.503-14.771 7.704 0.058-17.436-11.7-12.396 15.698-5.271 7.53-15.409 9.847 14.134zM678.706 185.016l16.394-2.143-5.040 16.277 7.589 15.582-16.566-0.462-11.702 11.816-5.213-16.567-14.828-8.342 13.323-9.731 2.549-16.915 13.495 10.484zM475.501 127.786l17.030 3.128-10.195 13.091 2.491 16.393-16.393-5.503-15.524 7.067 0.059-16.509-12.165-12.049 16.509-4.692 7.996-14.482 10.194 13.555zM256.483 84.747l641.473 370.378c15.698 9.095 21.143 29.252 12.049 44.951l-98.764 171.056c-9.095 15.698-29.252 21.143-44.951 12.049l-641.472-370.378c-15.698-9.095-21.143-29.252-12.049-44.951l98.764-171.055c9.036-15.756 29.194-21.202 44.95-12.050zM221.611 112.204l-90.539 156.806c-6.777 11.759-2.721 26.935 9.038 33.714l627.222 362.037c11.759 6.777 26.937 2.722 33.714-9.038l90.538-156.805c6.777-11.759 2.723-26.936-9.036-33.713l-627.281-362.096c-11.701-6.835-26.761-2.78-33.655 9.094zM720.934 174.417c-96.969-96.969-244.39-112.666-357.751-47.153l-16.335-9.5c120.602-74.609 280.999-59.606 385.614 45.009 63.486 63.486 93.897 147.42 91.522 230.545l-16.277-9.442c0.001-75.767-28.904-151.592-86.772-209.459zM335.204 453.33c9.211 23.46 23.287 45.531 42.286 64.531 44.081 44.081 104.498 61.864 161.845 53.291l21.664 12.512c-67.658 16.799-142.267-1.274-195.152-54.159-25.546-25.546-42.981-56.189-52.365-88.627l21.721 12.452zM435.88 602.316l16.799 1.737-8.458 14.25 4.23 16.508-16.51-4.228-14.25 8.457-1.737-16.799-13.033-11.295 15.467-6.082 6.082-15.467 11.411 12.917zM328.659 566.807l-16.336 2.202 5.040-16.162-7.531-15.524 16.567 0.347 11.643-11.759 5.098 16.451 14.712 8.226-13.323 9.731-2.548 16.914-13.323-10.427zM548.894 640.721l-17.147-1.853 9.268-13.786-3.649-16.162 16.683 4.287 14.829-8.11 1.043 16.451 12.859 11.121-15.988 5.793-6.894 15.003-11.006-12.744zM301.839 593.511c96.968 96.968 244.389 112.665 357.749 47.151l16.335 9.5c-120.602 74.609-280.999 59.605-385.613-45.009-63.487-63.487-93.897-147.421-91.522-230.545l16.277 9.442c-0.059 75.71 28.904 151.592 86.772 209.461zM260.422 466.595l-16.22-2.896 9.674-13.844-2.434-17.030 15.64 5.445 14.772-7.705-0.174 17.204 11.585 12.281-15.64 5.213-7.646 15.293-9.559-13.96z"  horiz-adv-x="1024" />

    
    <glyph glyph-name="jiaban" unicode="&#58982;" d="M135.12 301.293c0 123.68 100.61 224.29 224.268 224.29 31.621 0 61.68-6.648 88.976-18.505a201.668 201.668 0 0 0 53.349 58.756c-42.354 22.85-90.816 35.847-142.324 35.847-165.893 0-300.367-134.495-300.367-300.39 0-148.63 108.04-271.691 249.804-295.78 5.246 25.49 12.856 50.064 22.77 73.414-110.585 13.757-196.477 108.142-196.477 222.368z m205.183 174.025c-12.875 0-23.308-10.454-23.308-23.31V291.52l-74.257-74.236c-9.07-9.112-9.07-23.889 0.02-32.963l9.412-9.391c4.406-4.426 10.253-6.85 16.462-6.85a23.11 23.11 0 0 1 16.48 6.85l86.212 86.21c5.688 5.65 5.627 13.76 5.587 21.949V452.008c0 12.856-10.453 23.31-23.31 23.31h-13.298z m119.677-70.572c0-56.173 28.977-105.517 72.752-134.113 1.261 0.4 2.523 0.842 3.766 1.221 4.586 1.404 9.19 2.724 13.897 3.907a266.188 266.188 0 0 0 12.536 2.863c5.888 1.221 11.835 2.162 18.084 3.044l1.68 0.24 0.984 0.14c2.382 0.361 4.784 0.681 7.37 0.961 10.533 1.083 20.065 1.603 29.117 1.603 9.051 0 18.583-0.52 29.298-1.603 2.404-0.28 4.807-0.6 7.189-0.961l2.123-0.3 0.78-0.12c6.007-0.84 11.955-1.802 17.825-2.984 4.224-0.88 8.41-1.824 12.595-2.883a333.618 333.618 0 0 0 13.759-3.866c1.302-0.4 2.583-0.861 3.884-1.262 43.776 28.598 72.755 77.942 72.755 134.113 0 88.475-71.734 160.208-160.208 160.208-29.98 0-57.954-8.392-81.967-22.73a160.67 160.67 0 0 1-54.729-54.248c-14.78-24.295-23.49-52.71-23.49-83.23z m320.414-218.16c-0.02 0-0.04 0.04-0.06 0.04-5.549 4.465-11.256 8.65-17.103 12.634-0.32 0.24-0.642 0.421-0.96 0.663-15.982 10.793-32.964 19.786-50.766 26.835a0.55 0.55 0 0 0-0.24 0.081c-2.264 0.9-4.486 1.921-6.77 2.743-4.065 1.443-8.19 2.703-12.336 3.945-2.984 0.942-6.006 1.763-9.033 2.583-0.98 0.24-1.943 0.542-2.921 0.823a247.043 247.043 0 0 1-10.815 2.463c-5.067 1.023-10.195 1.842-15.36 2.583h-0.161c-2.905 0.4-5.727 0.863-8.63 1.184-8.27 0.86-16.603 1.401-25.073 1.401-8.47 0-16.802-0.541-25.072-1.401-2.944-0.321-5.847-0.782-8.772-1.184-3.804-0.539-7.59-1.221-11.333-1.921-1.324-0.241-2.704-0.401-4.008-0.662a246.087 246.087 0 0 1-10.812-2.463c-1.002-0.281-1.962-0.581-2.922-0.823-3.025-0.82-6.05-1.64-9.033-2.583-4.147-1.26-8.273-2.502-12.338-3.945-2.282-0.822-4.525-1.842-6.768-2.743-0.08-0.04-0.16-0.08-0.24-0.08a266.534 266.534 0 0 1-50.766-26.836c-0.32-0.24-0.64-0.42-0.962-0.663a271.392 271.392 0 0 1-17.081-12.635c-0.02 0-0.06-0.04-0.08-0.04-35.206-28.237-64.345-65.506-85.15-108.82-11.436-23.753-20.067-49.405-25.955-76.36-4.043-18.543-7.088-37.587-8.169-57.253h558.963c-5.45 100.43-51.407 188.084-119.274 242.434z m177.85 606.96h-20.2l-8.417 20.201-8.419-20.2h-20.2l16.834-13.468-6.734-23.568 20.2 15.15 18.52-15.15-8.417 23.568 16.833 13.467z m-50.503-67.338h-15.15l-5.052 15.151-5.05-15.151h-16.833l11.784-10.102-5.05-16.834 13.466 10.1 13.468-10.1-5.05 16.834 13.467 10.102z m50.503-75.757H946.46l-3.366 11.786-5.05-11.786H926.26l8.417-6.733-5.05-13.469 13.468 8.419 10.1-8.419-5.05 13.47 10.1 6.732z m0 0zM842.085 823.85c-69.023-6.734-121.21-63.972-121.21-134.678 0-74.073 60.606-134.678 134.678-134.678 42.088 0 85.858 20.203 109.426 50.505H946.46c-74.072 0-134.678 60.603-134.678 134.677 0 31.986 11.785 60.605 30.303 84.174z m0 0z"  horiz-adv-x="1024" />

    
    <glyph glyph-name="vryanjing" unicode="&#58892;" d="M816.077363 130.81318699999997s-7.139868 1.125275-21.19455 2.813187C719.950769-19.776702999999998 593.582418-128 501.51244-128c-95.316396 0-219.546725 106.901099-293.370374 258.852571l-0.225055-0.039384C121.057055 130.81318699999997 50.637363 206.38101099999994 50.637363 299.60439599999995V434.637363c0 92.992703 52.561582 182.243868 127.533011 221.30778C223.164484 799.8902860000001 319.67367 896 501.51244 896c177.348923 0 273.509275-91.434198 319.893098-229.494154C909.12633 635.588923 973.362637 537.4255820000001 973.362637 434.637363v-135.032967c0-93.223385-70.419692-168.791209-157.285274-168.791209z m-314.564923-213.802198c80.012659 0 186.69433 90.421451 253.861978 220.666374-51.762637 4.675516-136.332659 10.014945-252.410374 10.014945-128.782066 0-211.726066-6.571604-255.893099-11.517187C313.186462 6.729143000000022 418.495297-82.989011 501.51244-82.989011z m0 933.978022c-145.104176 0-230.169319-71.241143-276.204308-178.11411A171.109275 171.109275 0 0 0 260.349187 676.571429h503.301626c3.493978 0 6.959824-0.118154 10.408791-0.331956C729.178022 782.217846 645.812044 850.989011 501.51244 850.989011z m424.279208-415.631473c0 83.832967-29.257143 147.799209-89.290549 177.647121a167.800967 167.800967 0 0 1-20.885099 8.630857 193.631648 193.631648 0 0 1-1.929846 0.630154q-4.501099 1.462857-9.137231 2.695033c-0.663912 0.174418-1.316571 0.371341-1.98611 0.562638a181.163604 181.163604 0 0 1-11.382154 2.531868 210.375736 210.375736 0 0 1-38.968263 3.505231H271.787604a196.748659 196.748659 0 0 1-65.08589-10.476308q-5.857055-2.042374-11.438417-4.501099l-0.720176-0.32633q-5.283165-2.323692-10.324396-4.97934l-0.523252-0.270066a157.982945 157.982945 0 0 1-20.339341-12.884396C118.226989 564.4603079999999 98.208352 507.217582 98.208352 435.357538V307.481319c0-77.289495 25.819429-120.184967 89.318681-129.659781q6.751648-1.007121 14.004044-1.513494t14.966154-0.483868s89.886945 15.978901 286.877538 15.978901a2831.540044 2831.540044 0 0 0 296.234198-13.812747h0.112528l4.287296-0.478242 0.38822-0.045011 3.426462-0.38822 0.534505-0.06189 2.773802-0.32633 0.438857-0.056263 2.424967-0.292572c2.610637-0.320703 4.017231-0.512 4.017231-0.512 82.915868 0 107.806945 43.418725 107.806945 131.657143V435.357538z m-45.866197 48.33055a16.001407 16.001407 0 0 0-21.942858 4.54611A289.960791 289.960791 0 0 1 776.43956 571.813978a16.001407 16.001407 0 0 0-3.994725 22.061011 16.676571 16.676571 0 0 0 23.276308 4.619253 317.985758 317.985758 0 0 0 89.41433-91.653627 16.676571 16.676571 0 0 0-5.210022-23.152527z m-10.223121-55.093451a23.518242 23.518242 0 0 0-8.282022-31.620219 21.17767 21.17767 0 0 0-29.819781 5.463208 454.549099 454.549099 0 0 1-141.587692 145.132308 21.17767 21.17767 0 0 0-4.720527 29.977319 23.512615 23.512615 0 0 0 31.811516 7.494329 489.877099 489.877099 0 0 0 152.598506-156.446945zM578.706286 85.80219799999998L596.395604 48.026725000000056a189.845099 189.845099 0 0 0-185.670329 0L428.414593 85.80219799999998a153.645011 153.645011 0 0 1 150.291693 0z"  horiz-adv-x="1024" />

    
    <glyph glyph-name="tiaoxiu" unicode="&#58958;" d="M841.2 832H183c-65.7 0-119-53.4-119-118.9V55c0-65.6 53.3-119 119-119h658.2c65.6 0 118.8 53.4 118.8 118.9V713.1C960 778.7 906.7 832 841.2 832zM671.9 166.2H430.2l41.5-41.3c12.6-12.6 12.6-33.2 0.1-45.8-12.4-12.2-33.5-12.3-46-0.1l-96.6 96.6c-6.1 6.4-9.6 14.8-9.6 23.1s3.5 16.6 9.3 22.8l96.9 96.9c5.9 5.7 14.3 9.1 23 9.1s17.1-3.4 23-9.1c12.4-12.7 12.4-33.2 0-45.8l-41.6-41.4h241.7c17.8 0 32.4-14.6 32.4-32.4 0-18-14.6-32.6-32.4-32.6zM695 386.9l-96.9-97c-12.5-12.2-33.5-12.2-45.9 0-12.4 12.6-12.4 33.1 0 45.8l41.6 41.5H352.1c-17.8 0-32.4 14.6-32.4 32.4 0 17.8 14.6 32.4 32.4 32.4h241.7l-41.5 41.3c-12.6 12.7-12.6 33.3-0.1 45.7 12.1 11.8 34.2 11.8 45.8 0.3l96.8-96.6c6.1-6.5 9.6-14.8 9.6-23.1-0.1-8.3-3.4-16.5-9.4-22.7z m191.6 229.7H137.4V713c0 25 20.5 45.5 45.6 45.5h15.2v-52.3c0-13.5 11-24.5 24.5-24.5s24.5 11 24.5 24.5v52.3h95.6v-52.3c0-13.5 11-24.5 24.5-24.5s24.5 11 24.5 24.5v52.3h95.6v-52.3c0-13.5 11-24.5 24.5-24.5s24.5 11 24.5 24.5v52.3h95.5v-52.3c0-13.5 11-24.5 24.5-24.5s24.5 11 24.5 24.5v52.3h95.6v-52.3c0-13.5 11-24.5 24.5-24.5s24.5 11 24.5 24.5v52.3h15.4c25 0 45.3-20.5 45.3-45.5v-96.4z"  horiz-adv-x="1024" />

    
    <glyph glyph-name="zhengjian" unicode="&#59093;" d="M1268.4940109252927 779.4946804046631H278.7897834777832A92.62839317321777 92.62839317321777 0 0 1 187.14861488342288 686.4437427520752V81.62191772460938a92.62839317321777 92.62839317321777 0 0 1 91.63962364196777-93.05093765258789h989.7057723999023a92.62839317321777 92.62839317321777 0 0 1 91.63962364196777 93.05093765258789V686.4437427520752A92.62839317321777 92.62839317321777 0 0 1 1268.494783401489 779.4946804046631zM722.5565013885499 163.38852310180664a46.3871955871582 46.3871955871582 0 0 0-5.510072708129884-16.872425079345703 28.380775451660156 28.380775451660156 0 0 0-14.434490203857424-7.4343109130859375 255.1736068725586 255.1736068725586 0 0 0-29.777412414550785-6.867313385009767c-11.863689422607422-2.0965003967285156-24.979562759399418-4.060907363891601-39.29509162902832-5.932617187499999s-28.749246597290043-3.4800052642822266-43.30192565917968-4.6533966064453125-28.512096405029297-2.319746017456055-42.182607650756836-3.137025833129883-25.42759895324707-1.3178443908691406-35.590295791625984-1.3178443908691406-22.0001220703125 0.46116828918457026-35.393314361572266 1.3178443908691406-27.15485572814941 1.8585777282714844-41.47038459777833 3.137025833129883-28.525228500366207 2.556896209716797-42.37958908081055 4.073266983032227-26.69291496276856 3.137798309326172-38.37198257446289 5.00950813293457-21.53972625732422 3.7171554565429688-29.567298889160163 5.575733184814453a40.863990783691406 40.863990783691406 0 0 0-15.000715255737308 5.351715087890625 50.4202938079834 50.4202938079834 0 0 0-8.014440536499023 26.16608619689941 204.18631553649902 204.18631553649902 0 0 0 1.832313537597656 56.18064880371093 45.39842605590821 45.39842605590821 0 0 0 15.685901641845703 30.015335083007812 103.55661392211914 103.55661392211914 0 0 0 29.791316986083984 16.160202026367188 382.2729778289795 382.2729778289795 0 0 0 35.393314361572266 10.941352844238281 105.83696365356442 105.83696365356442 0 0 1 32.30881690979004 14.06524658203125 103.26616287231444 103.26616287231444 0 0 1 16.951217651367188 13.735399246215819 46.83523178100586 46.83523178100586 0 0 1 8.59457015991211 12.443819046020508 32.137327194213874 32.137327194213874 0 0 1 2.742290496826172 13.181533813476562c0 4.534435272216797-0.22401809692382812 9.767961502075194-0.5669975280761719 15.58084487915039a30.318145751953125 30.318145751953125 0 0 1-8.59457015991211 19.654111862182617 220.40059089660647 220.40059089660647 0 0 1-16.04201316833496 14.078378677368164 33.8375473022461 33.8375473022461 0 0 0-7.6722335815429705 10.545845031738281 115.42030334472656 115.42030334472656 0 0 0-5.839920043945312 13.722267150878904c-1.607522964477539 5.008735656738281-3.3216476440429688 10.545072555541992-4.929170608520509 16.872425079345703a30.739917755126953 30.739917755126953 0 0 0-7.329254150390624 3.7171554565429688 33.12609672546387 33.12609672546387 0 0 0-6.419277191162109 7.44821548461914 61.479835510253906 61.479835510253906 0 0 0-6.406917572021484 13.722267150878904 38.75513076782227 38.75513076782227 0 0 0-2.4124431610107426 16.516313552856445 37.265024185180664 37.265024185180664 0 0 0 3.0976295471191406 12.799930572509766 38.53111267089844 38.53111267089844 0 0 0 6.763029098510743 11.270427703857422 269.2913818359375 269.2913818359375 0 0 0 1.832313537597656 40.59980392456055 292.2416496276855 292.2416496276855 0 0 0 7.671461105346678 36.5273094177246 116.65935516357422 116.65935516357422 0 0 0 16.26603126525879 35.23495674133301 95.76619148254395 95.76619148254395 0 0 0 22.1059513092041 24.30750846862793 109.88396644592285 109.88396644592285 0 0 0 25.20435333251953 14.657735824584961 112.11178779602054 112.11178779602054 0 0 0 25.769805908203125 7.210292816162108 167.5408172607422 167.5408172607422 0 0 0 24.624223709106445 1.8724822998046875 117.18618392944335 117.18618392944335 0 0 0 55.90410232543947-13.182306289672853 113.56172561645505 113.56172561645505 0 0 0 36.315650939941406-28.024663925170902 111.87386512756348 111.87386512756348 0 0 0 19.93143081665039-37.80498504638671 304.3942451477051 304.3942451477051 0 0 0 9.503774642944336-38.96601676940918 240.22541999816895 240.22541999816895 0 0 0 2.4124431610107426-42.45838165283204 22.514591217041016 22.514591217041016 0 0 0 5.496940612792969-6.854953765869141 48.23264122009278 48.23264122009278 0 0 0 3.4398365020751958-9.64822769165039 38.227529525756836 38.227529525756836 0 0 0 0.34297943115234375-14.658508300781248 49.47169303894044 49.47169303894044 0 0 0-4.929943084716796-18.15164566040039 46.782703399658196 46.782703399658196 0 0 0-7.329254150390624-10.545845031738281 19.773073196411136 19.773073196411136 0 0 0-9.859886169433592-5.575733184814453c-1.5951633453369138-6.28795623779297-3.3216476440429688-11.863689422607422-4.916810989379884-16.872425079345703a89.97957229614258 89.97957229614258 0 0 0-6.195259094238281-13.722267150878904 29.157886505126953 29.157886505126953 0 0 0-8.014440536499023-10.005111694335938 236.11970901489255 236.11970901489255 0 0 0-8.937549591064453-7.4343109130859375 65.90921401977538 65.90921401977538 0 0 1-7.105236053466798-6.59153938293457 36.908912658691406 36.908912658691406 0 0 1-5.272150039672852-7.790422439575195 43.38149070739746 43.38149070739746 0 0 1-3.440608978271485-10.545072555541992 88.4238052368164 88.4238052368164 0 0 1-0.9231090545654297-16.517086029052738 42.85388946533203 42.85388946533203 0 0 1 3.955078125-16.517086029052738 47.45475769042969 47.45475769042969 0 0 1 12.035179138183594-15.58084487915039 73.66024017333984 73.66024017333984 0 0 1 23.027515411376953-13.181533813476562 190.6355381011963 190.6355381011963 0 0 1 28.526000976562496-9.662132263183592 267.92100906372076 267.92100906372076 0 0 0 30.120391845703125-9.649000167846681 102.55471229553223 102.55471229553223 0 0 0 25.77057838439941-14.302396774291992 47.45475769042969 47.45475769042969 0 0 0 16.266803741455078-22.409534454345707 150.43124198913574 150.43124198913574 0 0 0 3.95430564880371-21.16971015930176 203.85646820068357 203.85646820068357 0 0 0 1.4893341064453123-25.24297714233398 147.49119758605954 147.49119758605954 0 0 0-1.832313537597656-24.425697326660156z m516.1608695983887 6.59153938293457H835.4979286193849a27.918834686279297 27.918834686279297 0 0 0 0 55.82453727722167h403.2186698913574a27.918834686279297 27.918834686279297 0 0 0 0-55.78514099121094z m0 186.1011028289795H835.4979286193849a27.918834686279297 27.918834686279297 0 0 0 0 55.82453727722167h403.2186698913574a27.918834686279297 27.918834686279297 0 0 0 0-55.78514099121094z m0 186.08797073364255H835.4979286193849a27.918834686279297 27.918834686279297 0 0 0 0 55.837669372558594h403.2186698913574a27.918834686279297 27.918834686279297 0 0 0 0-55.79827308654786z"  horiz-adv-x="1535" />

    
    <glyph glyph-name="yibanshixiang" unicode="&#58966;" d="M275.16 453.595h10.324c86.72 0 161.05-30.971 225.058-92.914 61.942-61.942 92.914-136.273 92.914-225.058 0-86.72-30.972-161.05-92.914-222.993v-2.064c-12.41-10.324-24.777-22.713-39.23-30.972h588.453c53.684 0 80.526 26.842 82.59 76.396V637.358c0 35.1-14.453 61.942-45.424 86.72L960.657 845.897c-16.518 18.582-39.23 26.841-64.028 24.776H337.082c-39.23-2.064-59.877-22.712-61.942-61.942v-355.137h0.02z m743.31 231.252v-82.59H522.93v82.59h495.54z m-619.425 20.647c16.518 0 30.972-6.194 43.36-18.582 12.41-12.389 18.583-26.842 18.583-43.36 0-18.583-6.194-33.036-18.583-43.36-12.388-12.388-26.842-18.583-43.36-18.583-18.582 0-33.036 6.195-45.424 18.583-10.324 10.324-16.518 24.777-16.518 43.36 0 16.518 6.194 30.971 16.518 43.36 12.388 12.388 26.842 18.582 45.424 18.582zM688.11 189.307c-2.064 35.1-10.323 61.942-20.647 82.59h351.007v-82.59H688.11z m-20.647-206.475c12.388 26.842 20.647 53.683 20.647 82.59h330.36v-82.59H667.463zM522.93 478.372h495.54v-82.59H605.52c-20.647 35.1-49.554 61.942-82.59 82.59z m-240.574-82.59c-55.078 0-101.996-14.28-144.835-42.839-8.16-6.12-16.34-12.239-24.479-20.399-4.08-4.08-8.16-8.16-12.26-12.24-2.04-2.04-4.06-4.08-6.12-6.119-46.918-48.958-69.336-106.076-69.336-173.393 0-69.358 24.458-126.476 69.337-175.434 2.06-2.04 4.08-4.08 6.12-6.12 36.738-36.718 81.596-61.197 130.554-69.357 16.32-4.08 32.64-6.12 50.998-6.12 69.358 0 128.516 26.52 179.514 75.478 12.26 14.279 24.479 26.519 34.678 40.798 26.52 40.798 40.799 87.717 40.799 140.755 0 50.998-14.28 97.916-40.799 138.714-10.2 14.28-22.439 28.56-34.678 40.799-44.879 44.878-95.877 69.357-152.995 73.437-10.179 2.04-18.338 2.04-26.498 2.04z m-159.863-99.526c39.702 37.367 84.075 58.386 135.455 63.057 7.006 2.336 16.348 2.336 23.354 2.336 9.342 0 16.348 0 25.69-2.336 49.068-4.67 93.418-25.69 130.808-63.057 44.35-42.038 65.392-95.753 65.392-156.474 0-63.057-21.019-114.437-65.392-158.81-42.038-42.038-93.417-63.057-156.474-63.057-60.722 0-114.437 21.02-158.81 63.057-42.038 44.373-63.057 95.753-63.057 158.81-0.023 60.721 20.996 114.436 63.034 156.474z m132.02-210.187l-61.943 41.295-41.295-61.942 82.59-61.943h61.943l123.885 206.475-61.943 41.295-103.237-165.18z"  horiz-adv-x="1161" />

    
    <glyph glyph-name="dengjibao" unicode="&#58898;" d="M587.093 271.36c-6.826-34.133-10.24-71.68-17.066-105.813-3.414-13.654-17.067-58.027 17.066-47.787 20.48 6.827 126.294 78.507 126.294 78.507L587.093 271.36z m20.48 30.72l122.88-78.507L945.493 537.6l-133.12 88.747-204.8-324.267z m225.28 348.16l126.294-78.507s47.786 30.72 23.893 78.507c-27.307 20.48-54.613 54.613-88.747 54.613-10.24 0-20.48-3.413-30.72-10.24-3.413-3.413-34.133-40.96-30.72-44.373zM566.613 315.733c6.827 17.067 13.654 30.72 23.894 47.787 17.066 27.307 208.213 317.44 211.626 324.267 3.414 6.826 13.654 20.48 13.654 27.306v20.48c0 17.067 0 30.72-13.654 44.374-10.24 10.24-27.306 20.48-44.373 23.893-13.653 3.413-23.893 0-37.547 0H153.6c-27.307 0-44.373-30.72-51.2-54.613v-92.16h34.133c37.547 0 68.267-30.72 68.267-68.267v-17.067c0-37.546-30.72-68.266-68.267-68.266H102.4v-40.96h34.133c37.547 0 68.267-30.72 68.267-68.267v-17.067c0-37.546-30.72-68.266-68.267-68.266H102.4v-40.96h34.133c37.547 0 68.267-30.72 68.267-68.267v-17.067c0-37.546-30.72-68.266-68.267-68.266H102.4v-75.094c0-27.306 13.653-68.266 47.787-68.266h610.986c17.067 0 37.547 20.48 44.374 34.133 10.24 17.067 6.826 40.96 6.826 61.44V267.947c-3.413-3.414-61.44-92.16-71.68-102.4-10.24-10.24-23.893-17.067-40.96-23.894-30.72-13.653-116.053-58.026-160.426-81.92-10.24-6.826-23.894 3.414-20.48 17.067 13.653 64.853 34.133 204.8 40.96 221.867 3.413 3.413 3.413 10.24 6.826 17.066zM324.267 657.067h273.066c20.48 0 34.134-13.654 34.134-34.134S617.813 588.8 597.333 588.8H324.267c-20.48 0-34.134 13.653-34.134 34.133s13.654 34.134 34.134 34.134z m170.666-249.174H324.267c-20.48 0-34.134 13.654-34.134 34.134s13.654 34.133 34.134 34.133h170.666c20.48 0 34.134-13.653 34.134-34.133 0-17.067-17.067-34.134-34.134-34.134zM136.533 622.933H68.267c-17.067 0-34.134-17.066-34.134-34.133v-17.067c0-17.066 17.067-34.133 34.134-34.133h68.266c17.067 0 34.134 17.067 34.134 34.133V588.8c0 17.067-17.067 34.133-34.134 34.133z m0-197.973H68.267c-17.067 0-34.134-17.067-34.134-34.133v-17.067c0-17.067 17.067-34.133 34.134-34.133h68.266c17.067 0 34.134 17.066 34.134 34.133v17.067c0 20.48-17.067 34.133-34.134 34.133z m0-194.56H68.267c-17.067 0-34.134-13.653-34.134-34.133V179.2c0-17.067 17.067-34.133 34.134-34.133h68.266c17.067 0 34.134 17.066 34.134 34.133v17.067c0 20.48-17.067 34.133-34.134 34.133z"  horiz-adv-x="1024" />

    
    <glyph glyph-name="xinfeng2" unicode="&#58977;" d="M946.176 793.6c-23.552 13.312-50.176 21.504-79.872 21.504H157.696c-28.672 0-56.32-8.192-79.872-21.504L512 363.52l434.176 430.08z m55.296-55.296L541.696 281.6c-8.192-8.192-18.432-11.264-29.696-11.264-11.264-1.024-22.528 3.072-29.696 11.264L22.528 738.304C8.192 714.752 0 688.128 0 659.456v-547.84C0 25.6 70.656-44.032 157.696-44.032h708.608c87.04 0 157.696 70.656 157.696 156.672V659.456c0 28.672-8.192 55.296-22.528 78.848z"  horiz-adv-x="1024" />

    
    <glyph glyph-name="tongzhigonggao" unicode="&#58893;" d="M665.92 252.864l26.112-77.76a229.76 229.76 0 0 1 0 411.008l-26.112-77.76c58.56-29.376 76.672-75.776 76.672-127.744 0-48.704-18.048-98.368-76.672-127.744zM52.864 125.12h128.32c53.952 0 67.2-4.032 98.112-23.872 61.696-39.552 173.888-134.208 231.808-179.776 19.392-15.296 52.608-6.08 52.608 24.704V811.712c0 44.8-39.296 40.896-57.28 25.664-57.6-48.704-169.344-139.392-225.536-176.64-23.168-15.36-45.696-24.64-99.648-24.64H54.08c-24.192 0-52.416-9.344-52.416-51.264v-408.128c0-51.968 34.624-51.584 51.2-51.584zM822.784 764.096l-29.12-76.928c107.264-88.256 153.28-217.088 153.28-306.624 0-83.008-43.968-208.256-153.28-306.624l29.12-76.928c121.408 85.568 200.832 225.28 200.832 383.488s-79.424 298.048-200.832 383.616z"  horiz-adv-x="1024" />

    
    <glyph glyph-name="yongzhangshenqing-" unicode="&#59711;" d="M51.25-25.499h921.5V-128H51.25zM904.754 247.5h-223.27c-20.299 23.343-34.507 50.744-36.537 81.189C634.799 452.502 768.76 511.365 768.76 663.595 768.761 792.484 670.318 896 513.016 896 355.71 896 256.254 792.484 256.254 663.595c0-151.215 132.948-211.092 123.813-334.906-2.031-30.445-16.239-56.833-36.535-81.189H119.247c-37.55 0-67.997-30.445-67.997-67.996v-137.007h921.5V179.504c0 37.551-30.445 67.996-67.996 67.996z"  horiz-adv-x="1024" />

    


  </font>
</defs>
</svg>
